<svg width="2560" height="1440" viewBox="0 0 2560 1440" fill="none" xmlns="http://www.w3.org/2000/svg">
<g id="Frame 2" clip-path="url(#clip0_3_12)">
<g id="L1">
<rect id="Rectangle 1" width="2560" height="1442.62" fill="url(#paint0_linear_3_12)"/>
<path id="Ellipse 1" d="M1174.5 278.455C1174.5 314.604 1145.85 343.909 1110.5 343.909C1075.15 343.909 1046.5 314.604 1046.5 278.455C1046.5 242.305 1075.15 213 1110.5 213C1145.85 213 1174.5 242.305 1174.5 278.455Z" fill="url(#paint1_linear_3_12)"/>
<path id="Vector 6" d="M1160 399C1146.33 392.399 1138.01 390.098 1121.5 389.5C1140.03 393.492 1149.14 396.21 1161.5 402.5C1162.6 394.667 1166.69 388.392 1178 375C1168.78 381.443 1164.49 386.23 1160 399Z" fill="#201D1D"/>
<path id="Vector 7" d="M1197.94 363.436C1188.02 356.715 1181.98 354.372 1170 353.764C1183.45 357.828 1190.06 360.596 1199.03 367C1199.82 359.024 1202.79 352.635 1211 339C1204.31 345.56 1201.2 350.434 1197.94 363.436Z" fill="#201D1D"/>
<path id="Vector 6_2" d="M1294 363C1280.33 356.399 1272.01 354.098 1255.5 353.5C1274.03 357.492 1283.14 360.21 1295.5 366.5C1296.6 358.667 1300.69 352.392 1312 339C1302.78 345.443 1298.49 350.23 1294 363Z" fill="#201D1D"/>
<path id="Vector 7_2" d="M1071.7 399.436C1054.77 392.715 1044.46 390.372 1024 389.764C1046.96 393.828 1058.24 396.596 1073.56 403C1074.92 395.024 1079.98 388.635 1094 375C1082.58 381.56 1077.26 386.434 1071.7 399.436Z" fill="#201D1D"/>
<path id="Vector 8" d="M1068.99 369.218C1063.67 365.857 1060.43 364.686 1054 364.382C1061.22 366.414 1064.76 367.798 1069.58 371C1070 367.012 1071.59 363.818 1076 357C1072.41 360.28 1070.74 362.717 1068.99 369.218Z" fill="#201D1D"/>
<path id="Vector 9" d="M1138 314C1124.33 307.399 1116.01 305.098 1099.5 304.5C1118.03 308.492 1127.14 311.21 1139.5 317.5C1140.6 309.667 1144.69 303.392 1156 290C1146.78 296.443 1142.49 301.23 1138 314Z" fill="#201D1D"/>
<path id="Vector 10" d="M1237.58 334.545C1228.14 326.144 1222.4 323.216 1211 322.455C1223.79 327.535 1230.08 330.995 1238.61 339C1239.37 329.03 1242.19 321.044 1250 304C1243.64 312.2 1240.67 318.293 1237.58 334.545Z" fill="#201D1D"/>
<path id="Vector 11" d="M1399 320C1385.33 313.399 1377.01 311.098 1360.5 310.5C1379.03 314.492 1388.14 317.21 1400.5 323.5C1401.6 315.667 1405.69 309.392 1417 296C1407.78 302.443 1403.49 307.23 1399 320Z" fill="#201D1D"/>
<path id="Vector 8_2" d="M436.602 91.2182C443.132 87.8574 447.109 86.6862 455 86.3818C446.143 88.414 441.793 89.798 435.885 93C435.36 89.0121 433.407 85.8176 428 79C432.406 82.2799 434.457 84.7172 436.602 91.2182Z" fill="#201D1D"/>
<path id="Vector 9_2" d="M414.965 101.091C421.012 97.4901 424.694 96.2352 432 95.9091C423.799 98.0864 419.771 99.5693 414.301 103C413.814 98.7272 412.006 95.3046 407 88C411.08 91.5142 412.978 94.1256 414.965 101.091Z" fill="#201D1D"/>
<path id="Vector 8_3" d="M414.372 69.9636C419.209 66.1228 422.155 64.7842 428 64.4364C421.439 66.7588 418.217 68.3406 413.841 72C413.452 67.4424 412.005 63.7915 408 56C411.264 59.7484 412.783 62.5339 414.372 69.9636Z" fill="#201D1D"/>
<path id="Vector 9_3" d="M467.009 74.2182C472.33 70.8574 475.57 69.6862 482 69.3818C474.783 71.414 471.239 72.798 466.425 76C465.997 72.0121 464.405 68.8176 460 62C463.59 65.2799 465.261 67.7172 467.009 74.2182Z" fill="#201D1D"/>
</g>
</g>
<defs>
<linearGradient id="paint0_linear_3_12" x1="1280" y1="1442.62" x2="1280" y2="0" gradientUnits="userSpaceOnUse">
<stop stop-color="#D9D9D9"/>
<stop offset="0.245192" stop-color="#B8B8B3" stop-opacity="0.912254"/>
<stop offset="0.653846" stop-color="#FFA600"/>
<stop offset="1" stop-color="#FF6B01"/>
</linearGradient>
<linearGradient id="paint1_linear_3_12" x1="1047" y1="336.5" x2="1133" y2="262.5" gradientUnits="userSpaceOnUse">
<stop stop-color="#FFFCF0"/>
<stop offset="1" stop-color="#FFE16B"/>
</linearGradient>
<clipPath id="clip0_3_12">
<rect width="2560" height="1440" fill="white"/>
</clipPath>
</defs>
</svg>
