<svg width="2560" height="1440" viewBox="0 0 2560 1440" fill="none" xmlns="http://www.w3.org/2000/svg">
<g id="Frame 2" clip-path="url(#clip0_3_12)">
<g id="L2">
<path id="Rectangle 4" d="M463.36 397.781L545.28 478.405L619.52 505.936L663.36 478.405C663.36 478.405 690.485 584.697 727.36 570.829C759.674 558.675 741.488 507.954 756.16 470.54C767.838 440.76 764.733 393.107 791.36 397.781C810.684 401.173 813.572 424.218 823.36 444.976C835.547 470.82 818.967 510.56 842.56 517.734C868.985 525.77 861.54 470.267 879.36 444.976C879.36 444.976 866.452 610.28 888.96 608.191C925.017 604.845 920.187 576.432 927.36 619.99C936.175 673.515 937.528 596.933 957.76 645.554C997.465 740.971 1029.76 667.185 1029.76 667.185L1079.36 592.46L1100.16 651.453C1100.16 651.453 1123.04 624.476 1141.76 619.99C1160.41 615.521 1160.24 662.551 1176.96 651.453C1239.42 610 1227.31 548.293 1205.76 570.829V551.376L1260.16 582.627C1260.16 582.627 1286.79 530.199 1311.36 505.936C1334.46 483.132 1352.44 479.865 1378.56 462.674C1404.94 445.312 1420.16 505.936 1420.16 505.936L1439.36 444.976L1455.36 462.674L1512.96 397.781L1522.56 496.103L1541.76 478.405V619.99L1564.16 533.466L1592.96 517.734L1615.36 435.143L1644.16 397.781C1644.16 397.781 1675.77 461.725 1708.16 462.674C1741.53 463.651 1775.36 397.781 1775.36 397.781L1797.76 462.674L1832.96 444.976L1871.36 462.674L1906.56 397.781L1954.56 427.278C1954.56 427.278 1965.29 455.08 1978.56 462.674C2005.43 478.046 2040.96 409.58 2040.96 409.58H2092.16C2092.16 409.58 2122.24 299.185 2127.36 317.156C2132.48 335.127 2538.19 424.157 2562.56 397.781V1440H1.28V1188.65V1074.76L21.76 964.8L88.32 907.2L142.08 799.855L194.56 859.805L216.32 907.2L309.76 608.191L343.04 619.99L463.36 397.781Z" fill="url(#paint0_linear_3_12)"/>
</g>
</g>
<defs>
<linearGradient id="paint0_linear_3_12" x1="1512.96" y1="256.582" x2="1512.96" y2="1440" gradientUnits="userSpaceOnUse">
<stop stop-color="#FF3F48"/>
<stop offset="1" stop-color="#FF6B01"/>
</linearGradient>
<clipPath id="clip0_3_12">
<rect width="2560" height="1440" fill="white"/>
</clipPath>
</defs>
</svg>
