<svg width="2560" height="1440" viewBox="0 0 2560 1440" fill="none" xmlns="http://www.w3.org/2000/svg">
<g id="Frame 2" clip-path="url(#clip0_3_12)">
<g id="L4">
<path id="Rectangle 3" d="M-7.67999 942.174V537.454L57.92 206.836L101.12 400.646L133.12 343.643L160.32 552.654L235.52 472.85L291.52 636.259L345.92 520.353L421.12 450.049L464.32 773.066L480.32 729.363L496.32 773.066L513.92 655.26L568.32 716.063L600.32 431.048L697.92 795.867L801.92 636.259L792.32 942.174C792.32 942.174 811.52 678.061 872.32 942.174C933.12 1206.29 952.32 942.174 952.32 942.174L1005.12 932.674C1005.12 932.674 1061.12 1415.3 1049.92 894.672C1038.72 374.045 1109.12 847.17 1109.12 847.17L1131.52 814.868C1152.14 837.129 1195.7 894.623 1184.32 871.871C1172.94 849.119 1167.02 944.724 1192.32 942.174L1296.32 860.47L1325.12 894.672C1325.12 894.672 1277.12 904.172 1360.32 871.871C1443.52 839.569 1442.23 776.91 1494.72 716.063L1521.92 752.165L1579.52 700.862C1579.52 700.862 1576.33 749.039 1593.92 752.165C1610.09 755.039 1622.72 716.063 1622.72 716.063L1664.32 824.368L1688.32 795.867C1688.32 795.867 1700.32 901.61 1737.12 893.722C1758.86 889.061 1777.92 847.17 1777.92 847.17C1781.04 903.564 1931.52 860.47 1931.52 860.47C1999.53 714.259 2117.27 960.514 2552.32 942.174V1440H-7.67999V942.174Z" fill="url(#paint0_linear_3_12)"/>
</g>
</g>
<defs>
<linearGradient id="paint0_linear_3_12" x1="1272.32" y1="206.836" x2="1272.32" y2="1440" gradientUnits="userSpaceOnUse">
<stop stop-color="#A30B13"/>
<stop offset="1" stop-color="#5C2728"/>
</linearGradient>
<clipPath id="clip0_3_12">
<rect width="2560" height="1440" fill="white"/>
</clipPath>
</defs>
</svg>
