<svg width="2560" height="1440" viewBox="0 0 2560 1440" fill="none" xmlns="http://www.w3.org/2000/svg">
<g id="Frame 2" clip-path="url(#clip0_3_12)">
<g id="L2.5">
<path id="Rectangle 3" d="M-312.32 767.777V221.275L-222.12 -225.164L-162.72 36.5417L-118.72 -40.4305L-35.84 441.928L24.32 288L67.84 480.414L145.92 557.923L235.52 524.337L336.68 539.426L358.68 480.414L380.68 539.426L404.88 380.351L479.68 462.454L517.12 380.351C517.12 380.351 578.92 650.54 678.4 608.701C724.1 589.481 761.6 511.203 761.6 511.203L787.68 767.777C790.31 762.213 834.21 368.534 897.68 767.777C961.15 1167.02 1007.68 767.777 1007.68 767.777L1022.72 835.45L1058.56 800.096L1070.08 672.845C1070.08 672.845 1224.35 790.82 1195.52 900.855C1166.69 1010.89 1100.6 1442.46 1111.04 810.703V709.527L1137.92 738.699L1154.56 686.964L1172.48 715.247L1207.04 672.845L1254.4 657.45C1282.75 687.51 1274.88 702.351 1326.68 672.845C1378.48 643.339 1366.81 718.69 1401.6 715.247L1480.68 657.45L1520.28 703.634C1520.28 703.634 1454.28 716.462 1568.68 672.845C1683.08 629.227 1681.31 544.617 1753.48 462.454L1790.88 511.203L1870.08 441.928C1870.08 441.928 1865.7 506.982 1889.88 511.203C1912.12 515.085 1929.48 462.454 1929.48 462.454L1986.68 608.701L2019.68 570.215C2019.68 570.215 2036.17 713.002 2086.78 702.351C2116.68 696.058 2142.88 639.49 2142.88 639.49C2147.18 715.641 3164.04 1014.67 2858.24 1035.2C2552.44 1055.73 2512.2 997.936 3207.68 767.777V1440H-312.32V767.777Z" fill="url(#paint0_linear_3_12)"/>
</g>
</g>
<defs>
<linearGradient id="paint0_linear_3_12" x1="1405.44" y1="-481.478" x2="1405.44" y2="1183.69" gradientUnits="userSpaceOnUse">
<stop stop-color="#FF0004"/>
<stop offset="1" stop-color="#F0282C"/>
</linearGradient>
<clipPath id="clip0_3_12">
<rect width="2560" height="1440" fill="white"/>
</clipPath>
</defs>
</svg>
