<svg width="2560" height="1440" viewBox="0 0 2560 1440" fill="none" xmlns="http://www.w3.org/2000/svg">
<g id="Frame 2" clip-path="url(#clip0_3_12)">
<g id="L5">
<path id="Rectangle 5" d="M-6.68309 1003.14C-12.7395 783.142 7.57672 694.367 88.0577 519.766C154.613 631.323 149.077 719.951 258.602 783.405C368.126 846.859 338.158 792.766 362.646 783.405L384.009 735.462L493.339 869.302L508.771 848.069C531.075 924.733 551.864 958.493 602.668 1003.14L685.788 976.653L725.551 966.178L768.907 950.163L794.6 979.19L829.927 1070.27L852.408 979.19L898.975 1051.76L945.543 1124.32C945.543 1124.32 1001.6 1147.61 1038.68 1156.35C1122.48 1176.11 1257.06 1156.35 1257.06 1156.35L1411.22 1003.14L1486.69 1024.23C1486.69 1024.23 1550.75 963.669 1592.67 979.19C1607.73 984.765 1628 1003.14 1628 1003.14L1709.89 979.19L1782.15 869.302C1782.15 869.302 1796.11 887.495 1806.24 884.102C1818.17 880.106 1819.09 848.069 1819.09 848.069L1862.44 884.102L1936.31 848.069C2012.63 760.55 2047.45 733.469 2092.87 730.961L2169.14 647.884L2190.02 685.919L2249.43 613.853C2363.09 617.708 2434.2 538.291 2562.56 379.636V1442.62H-6.68309L-6.68309 1003.14Z" fill="url(#paint0_linear_3_12)"/>
</g>
</g>
<defs>
<linearGradient id="paint0_linear_3_12" x1="1277.44" y1="379.636" x2="1277.44" y2="1442.62" gradientUnits="userSpaceOnUse">
<stop stop-color="#790505"/>
<stop offset="1" stop-color="#242424"/>
</linearGradient>
<clipPath id="clip0_3_12">
<rect width="2560" height="1440" fill="white"/>
</clipPath>
</defs>
</svg>
