<svg width="2560" height="1440" viewBox="0 0 2560 1440" fill="none" xmlns="http://www.w3.org/2000/svg">
<g id="Frame 2">
<g id="L3">
<path id="Rectangle 2" d="M0 509.637C27.8001 455.551 50.0113 431.642 97.6 396.691C97.6 396.691 124.81 449.531 153.6 459.864C203.905 477.919 264 367.976 264 367.976L340.8 412.006C409.679 318.172 437.914 259.792 467.2 144L539.2 348.833L590.4 322.032C644.783 495.076 683.057 572.267 761.6 683.84L800 509.637C871.403 723.007 922.933 828.596 1038.4 988.219C1038.4 988.219 1080.93 932.151 1115.2 907.817C1158.03 877.409 1236.8 861.873 1236.8 861.873L1361.6 708.727L1425.6 683.84L1467.2 611.096L1476.8 657.04L1600 567.066C1600 567.066 1627.45 634.134 1652.8 670.44C1717.33 762.838 1789.75 869.204 1880 815.929C1970.74 762.362 1998.4 471.35 1998.4 471.35L2046.4 536.437L2072 412.006L2116.8 459.864L2144 306.718L2177.6 278.003L2193.6 222.487L2212.8 237.802L2238.4 144L2267.2 211.001C2267.2 211.001 2337.6 272.26 2339.2 255.031C2340.8 237.802 2404.8 306.718 2404.8 306.718H2443.2C2443.2 306.718 2441.48 245.434 2454.4 211.001C2461.07 193.217 2476.8 168.886 2476.8 168.886C2476.8 168.886 2475.44 200.111 2486.4 211.001C2504.71 229.187 2510.4 144 2510.4 144L2521.6 237.802L2544 211.001L2560 297.146V509.637V1440H0V509.637Z" fill="url(#paint0_linear_3_12)"/>
</g>
</g>
<defs>
<linearGradient id="paint0_linear_3_12" x1="1280" y1="144" x2="1280" y2="1440" gradientUnits="userSpaceOnUse">
<stop stop-color="#D41923"/>
<stop offset="1" stop-color="#A40537"/>
</linearGradient>
</defs>
</svg>
